<?xml version="1.0" encoding="UTF-8" standalone="no"?><!DOCTYPE svg PUBLIC "-//W3C//DTD SVG 1.1//EN" "http://www.w3.org/Graphics/SVG/1.1/DTD/svg11.dtd"><svg width="100%" height="100%" viewBox="0 0 60 60" version="1.1" xmlns="http://www.w3.org/2000/svg" xmlns:xlink="http://www.w3.org/1999/xlink" xml:space="preserve" style="fill-rule:evenodd;clip-rule:evenodd;stroke-linejoin:round;stroke-miterlimit:1.41421;"><g><path d="M39.881,20.038c1.244,1.245 2.24,2.737 2.986,4.23c2.737,5.723 1.866,12.939 -2.986,17.666l-13.311,13.436c-6.096,6.096 -15.925,6.096 -21.896,0c-6.096,-6.096 -6.096,-15.924 0,-21.895l9.455,-9.455c-1.12,3.732 -0.995,7.713 0.373,11.321l-3.981,3.981c-2.737,2.737 -2.737,7.34 0,10.201c2.861,2.862 7.34,2.862 10.202,0l13.311,-13.311c1.369,-1.369 2.115,-3.235 2.115,-5.101c0,-1.866 -0.746,-3.732 -2.115,-5.101c-1.368,-1.368 -3.234,-2.115 -5.101,-2.115l6.718,-6.718c1.493,0.622 2.862,1.617 4.23,2.861Z" style="fill:#ff9f18;fill-rule:nonzero;"/><path d="M19.976,39.944c-1.244,-1.244 -2.239,-2.737 -2.986,-4.23c-2.737,-5.723 -1.866,-12.939 2.986,-17.666l13.312,-13.436c6.096,-6.096 15.924,-6.096 21.896,0c6.096,6.096 6.096,15.924 0,21.896l-9.455,9.455c1.119,-3.733 0.995,-7.714 -0.374,-11.321l3.981,-3.982c2.737,-2.737 2.737,-7.34 0,-10.201c-2.861,-2.861 -7.34,-2.861 -10.201,0l-13.187,13.436c-1.369,1.369 -2.115,3.235 -2.115,5.101c0,1.866 0.746,3.732 2.115,5.101c1.368,1.368 3.234,2.115 5.1,2.115l-6.718,6.718c-1.617,-0.747 -2.985,-1.742 -4.354,-2.986Z" style="fill:#ff9f18;fill-rule:nonzero;"/></g></svg>