<svg version="1" xmlns="http://www.w3.org/2000/svg" width="933.333" height="933.333" viewBox="0 0 700.000000 700.000000"><path d="M510.7.5c-.1.1-4.4.5-9.5.8-5.1.4-9.6.8-10 1.1-.4.2-2.9.6-5.7 1-12.2 1.5-32.3 8-47.7 15.5-19.2 9.2-33.2 19.4-51.8 37.5-7.4 7.3-153 154.3-158.6 160.2-15 15.8-29.2 39.1-36.2 59.4-2.9 8.3-6.1 18.9-6.7 22-.1.8-.8 4.4-1.4 8-1.9 10.7-2.7 21.5-2.6 32.8.2 10.3 1.4 26.2 2 27.2.2.3.6 2.3.9 4.4 4.9 30.6 22.4 65.9 45 90.5 11.7 12.7 30.5 26.8 48.1 36.1l7.2 3.9 38.4-38.4c21.1-21.1 38.5-38.9 38.7-39.4.3-.9-6.4-1.7-9.9-1.3-.4.1-4.8-1-9.8-2.3-30.4-8.2-52.9-31.1-60.7-62-1.8-7.3-2.5-24.2-1.2-32.5 1.2-8.1 5.7-20.3 10.5-28.9 5.8-10.1 2-6.1 92.2-98 87.3-89 84.4-86.2 100.4-93.6 10.1-4.6 19.6-6.8 31.2-7.1 35.2-1.1 66.6 19.6 79.8 52.6 8.3 21 8 46-1 66.4-4.9 11.2-12 19.7-37.8 45.6l-25.4 25.5 2.5 7.5c2.6 7.6 5.9 20.3 6.9 26.3 2 11.8 2.4 15 3 21.7.8 8.3.7 24-.1 34-.6 8.2-4.3 31-5.4 33-.4.8-1.1 3.3-1.4 5.4-.7 3.7 3.1.1 58.6-55.5 60.9-61 68.4-69.4 79.6-88 2.9-4.8 5.2-8.9 5.2-9.2 0-.3 1.5-3.8 3.4-7.9 5.9-12.7 11.2-30.2 13-42.3.4-2.3.9-5.2 1.2-6.5 1-4.2 1.3-38.2.3-44-.5-3-1.1-7.1-1.3-9-.2-1.9-1-5.8-1.6-8.5-.6-2.8-1.4-6.1-1.7-7.5-1-5.4-6.7-21-11.1-30.5-15.4-33.5-40.7-61.7-72.5-80.9-16-9.7-41.2-19.2-58.2-22-12.5-2-37.6-4-38.8-3.1z"/><path d="M376.5 240l-39 39 4 .1c8.4.1 17.1 2 26.5 5.6 27.8 10.9 46.8 34.3 52.6 64.8 1.1 5.9 1 20-.2 26.9-2.2 12.5-6.1 22.6-13.2 33.6-4.2 6.5-161.8 165.1-173.1 174.2-14.5 11.6-31.2 17.8-49.1 18.1-11.5.2-17.9-.5-25.6-2.8-35.5-10.5-59.4-42.3-60.3-80-.4-16.7 4.4-34.1 13.1-47.5 2.6-4 14.1-16.6 30.2-32.8 14.4-14.5 26.3-26.5 26.5-26.7.1-.2-1.1-4.6-2.7-9.7-6.9-20.8-9.5-37.8-9.6-60.8-.1-14.9.8-31.2 1.8-32.9.2-.3.7-2.8 1-5.5.4-2.7.9-5.2 1.1-5.5.1-.3.6-2.2.9-4.1.3-1.9 1.2-5.6 2-8.3.8-2.6 1.2-4.7 1.1-4.7-.4 0-108.1 107.8-116.1 116.2C29.8 416.7 14 445.6 7 473c-2.5 9.9-3.6 16-4.9 28.2-.8 7.6-.6 32.5.3 36.8.3 1.4.9 5.2 1.2 8.5.4 3.3 1.2 7.8 2 10s1.4 4.8 1.4 5.7c0 2.9 7.6 23.9 11.8 32.8 17.8 37.5 50.5 70.3 86.9 87.2 31.9 14.7 65.3 19.8 100.2 15.3 8.7-1.1 25.7-4.9 29.6-6.5 1.1-.5 3.8-1.4 6-2.1 6.9-2.1 23.7-9.9 32.5-15.2 18.7-11.2 24.3-16.2 69.4-61.5 86.5-87 131.1-132.4 135.9-138.4 13.9-17.4 26-41 32.1-62.8 4.6-16.7 6.1-28 6.1-47.5 0-17.6-.6-24.3-3.5-38.5-5.4-27-17.9-53.6-35.9-76.5-10.3-13.2-26.2-27.2-42.7-37.8-6.6-4.2-17.5-9.7-19.2-9.7-.4 0-18.3 17.5-39.7 39z"/></svg>